<svg viewBox="0 0 66 16" xmlns="http://www.w3.org/2000/svg"><path class="nextLogo" d="M32.24 5A6.003 6.003 0 0 1 34 9.243V16h-6v-5.929a2.002 2.002 0 0 0-.589-1.414L25.34 6.586A2.003 2.003 0 0 0 23.923 6H22v10h-6V0h8.752a6 6 0 0 1 4.243 1.757zM60 0v5.929a2.002 2.002 0 0 1-.589 1.414l-2.073 2.071a2 2 0 0 1-1.415.586h-2.882A5.992 5.992 0 0 0 54 6.757V0h-6v5.929a2.002 2.002 0 0 1-.589 1.414l-2.073 2.071a2 2 0 0 1-1.415.586H42V0h-6v16h8.752a6.003 6.003 0 0 0 4.244-1.757L51 12.239V16h5.752a6.003 6.003 0 0 0 4.244-1.757L64.24 11A6.003 6.003 0 0 0 66 6.757V0zM0 6h4v10h6V6h4V0H0z"/></svg>